<mxfile host="Electron" modified="2023-11-16T14:47:26.906Z" agent="Mozilla/5.0 (Windows NT 10.0; Win64; x64) AppleWebKit/537.36 (KHTML, like Gecko) draw.io/22.0.3 Chrome/114.0.5735.289 Electron/25.8.4 Safari/537.36" etag="gl-32ldJZI_XY6DRJZzw" version="22.0.3" type="device">
  <diagram name="페이지-1" id="SLTncGQBv6yvB4Gwt0dM">
    <mxGraphModel dx="1272" dy="876" grid="1" gridSize="10" guides="1" tooltips="1" connect="1" arrows="1" fold="1" page="1" pageScale="1" pageWidth="1169" pageHeight="827" math="0" shadow="0">
      <root>
        <mxCell id="0" />
        <mxCell id="1" parent="0" />
        <mxCell id="xHcOPgm7-dVLdEI-tk_2-1" value="docker swram" style="swimlane;whiteSpace=wrap;html=1;" vertex="1" parent="1">
          <mxGeometry x="30" y="60" width="320" height="260" as="geometry" />
        </mxCell>
        <mxCell id="xHcOPgm7-dVLdEI-tk_2-2" value="worker&lt;br&gt;node&lt;br&gt;(instance)" style="ellipse;whiteSpace=wrap;html=1;aspect=fixed;" vertex="1" parent="xHcOPgm7-dVLdEI-tk_2-1">
          <mxGeometry x="18" y="46" width="80" height="80" as="geometry" />
        </mxCell>
        <mxCell id="xHcOPgm7-dVLdEI-tk_2-3" value="worker&lt;br&gt;node" style="ellipse;whiteSpace=wrap;html=1;aspect=fixed;" vertex="1" parent="xHcOPgm7-dVLdEI-tk_2-1">
          <mxGeometry x="18" y="155" width="80" height="80" as="geometry" />
        </mxCell>
        <mxCell id="xHcOPgm7-dVLdEI-tk_2-6" value="manager&lt;br&gt;node" style="ellipse;whiteSpace=wrap;html=1;aspect=fixed;" vertex="1" parent="xHcOPgm7-dVLdEI-tk_2-1">
          <mxGeometry x="184" y="100" width="80" height="80" as="geometry" />
        </mxCell>
        <mxCell id="xHcOPgm7-dVLdEI-tk_2-39" value="connect with manager IP address" style="text;html=1;strokeColor=none;fillColor=none;align=center;verticalAlign=middle;whiteSpace=wrap;rounded=0;" vertex="1" parent="xHcOPgm7-dVLdEI-tk_2-1">
          <mxGeometry x="130" y="200" width="125" height="30" as="geometry" />
        </mxCell>
        <mxCell id="xHcOPgm7-dVLdEI-tk_2-89" value="Raft Log / encrypted" style="rounded=0;whiteSpace=wrap;html=1;" vertex="1" parent="xHcOPgm7-dVLdEI-tk_2-1">
          <mxGeometry x="164" y="46" width="120" height="40" as="geometry" />
        </mxCell>
        <mxCell id="xHcOPgm7-dVLdEI-tk_2-8" value="cluster" style="swimlane;whiteSpace=wrap;html=1;" vertex="1" parent="1">
          <mxGeometry x="520" y="344" width="550" height="460" as="geometry" />
        </mxCell>
        <mxCell id="xHcOPgm7-dVLdEI-tk_2-25" value="service" style="swimlane;whiteSpace=wrap;html=1;" vertex="1" parent="xHcOPgm7-dVLdEI-tk_2-8">
          <mxGeometry x="40" y="40" width="210" height="400" as="geometry" />
        </mxCell>
        <mxCell id="xHcOPgm7-dVLdEI-tk_2-75" value="task/container" style="swimlane;whiteSpace=wrap;html=1;" vertex="1" parent="xHcOPgm7-dVLdEI-tk_2-25">
          <mxGeometry x="40" y="44" width="130" height="150" as="geometry" />
        </mxCell>
        <mxCell id="xHcOPgm7-dVLdEI-tk_2-26" value="command" style="rounded=0;whiteSpace=wrap;html=1;" vertex="1" parent="xHcOPgm7-dVLdEI-tk_2-75">
          <mxGeometry x="26.5" y="39" width="75" height="30" as="geometry" />
        </mxCell>
        <mxCell id="xHcOPgm7-dVLdEI-tk_2-9" value="docker&lt;br&gt;image" style="ellipse;whiteSpace=wrap;html=1;aspect=fixed;" vertex="1" parent="xHcOPgm7-dVLdEI-tk_2-75">
          <mxGeometry x="35" y="78" width="60" height="60" as="geometry" />
        </mxCell>
        <mxCell id="xHcOPgm7-dVLdEI-tk_2-76" value="task/container" style="swimlane;whiteSpace=wrap;html=1;" vertex="1" parent="xHcOPgm7-dVLdEI-tk_2-25">
          <mxGeometry x="39" y="224" width="130" height="150" as="geometry" />
        </mxCell>
        <mxCell id="xHcOPgm7-dVLdEI-tk_2-77" value="command" style="rounded=0;whiteSpace=wrap;html=1;" vertex="1" parent="xHcOPgm7-dVLdEI-tk_2-76">
          <mxGeometry x="26.5" y="39" width="75" height="30" as="geometry" />
        </mxCell>
        <mxCell id="xHcOPgm7-dVLdEI-tk_2-78" value="docker&lt;br&gt;image" style="ellipse;whiteSpace=wrap;html=1;aspect=fixed;" vertex="1" parent="xHcOPgm7-dVLdEI-tk_2-76">
          <mxGeometry x="35" y="78" width="60" height="60" as="geometry" />
        </mxCell>
        <mxCell id="xHcOPgm7-dVLdEI-tk_2-79" value="service" style="swimlane;whiteSpace=wrap;html=1;" vertex="1" parent="xHcOPgm7-dVLdEI-tk_2-8">
          <mxGeometry x="290" y="40" width="210" height="400" as="geometry" />
        </mxCell>
        <mxCell id="xHcOPgm7-dVLdEI-tk_2-80" value="task/container" style="swimlane;whiteSpace=wrap;html=1;" vertex="1" parent="xHcOPgm7-dVLdEI-tk_2-79">
          <mxGeometry x="40" y="44" width="130" height="150" as="geometry" />
        </mxCell>
        <mxCell id="xHcOPgm7-dVLdEI-tk_2-81" value="command" style="rounded=0;whiteSpace=wrap;html=1;" vertex="1" parent="xHcOPgm7-dVLdEI-tk_2-80">
          <mxGeometry x="26.5" y="39" width="75" height="30" as="geometry" />
        </mxCell>
        <mxCell id="xHcOPgm7-dVLdEI-tk_2-82" value="docker&lt;br&gt;image" style="ellipse;whiteSpace=wrap;html=1;aspect=fixed;" vertex="1" parent="xHcOPgm7-dVLdEI-tk_2-80">
          <mxGeometry x="35" y="78" width="60" height="60" as="geometry" />
        </mxCell>
        <mxCell id="xHcOPgm7-dVLdEI-tk_2-83" value="task/container" style="swimlane;whiteSpace=wrap;html=1;" vertex="1" parent="xHcOPgm7-dVLdEI-tk_2-79">
          <mxGeometry x="39" y="224" width="130" height="150" as="geometry" />
        </mxCell>
        <mxCell id="xHcOPgm7-dVLdEI-tk_2-84" value="command" style="rounded=0;whiteSpace=wrap;html=1;" vertex="1" parent="xHcOPgm7-dVLdEI-tk_2-83">
          <mxGeometry x="26.5" y="39" width="75" height="30" as="geometry" />
        </mxCell>
        <mxCell id="xHcOPgm7-dVLdEI-tk_2-85" value="docker&lt;br&gt;image" style="ellipse;whiteSpace=wrap;html=1;aspect=fixed;" vertex="1" parent="xHcOPgm7-dVLdEI-tk_2-83">
          <mxGeometry x="35" y="78" width="60" height="60" as="geometry" />
        </mxCell>
        <mxCell id="xHcOPgm7-dVLdEI-tk_2-16" style="edgeStyle=orthogonalEdgeStyle;rounded=0;orthogonalLoop=1;jettySize=auto;html=1;" edge="1" parent="1" source="xHcOPgm7-dVLdEI-tk_2-12">
          <mxGeometry relative="1" as="geometry">
            <mxPoint x="240" y="601" as="targetPoint" />
          </mxGeometry>
        </mxCell>
        <mxCell id="xHcOPgm7-dVLdEI-tk_2-12" value="client" style="whiteSpace=wrap;html=1;aspect=fixed;" vertex="1" parent="1">
          <mxGeometry x="60" y="561" width="80" height="80" as="geometry" />
        </mxCell>
        <mxCell id="xHcOPgm7-dVLdEI-tk_2-18" style="edgeStyle=orthogonalEdgeStyle;rounded=0;orthogonalLoop=1;jettySize=auto;html=1;" edge="1" parent="1">
          <mxGeometry relative="1" as="geometry">
            <mxPoint x="510" y="600.9999999999998" as="targetPoint" />
            <mxPoint x="409" y="601" as="sourcePoint" />
          </mxGeometry>
        </mxCell>
        <mxCell id="xHcOPgm7-dVLdEI-tk_2-17" value="request" style="text;html=1;strokeColor=none;fillColor=none;align=center;verticalAlign=middle;whiteSpace=wrap;rounded=0;" vertex="1" parent="1">
          <mxGeometry x="168" y="609" width="50" height="30" as="geometry" />
        </mxCell>
        <mxCell id="xHcOPgm7-dVLdEI-tk_2-19" value="routing" style="text;html=1;strokeColor=none;fillColor=none;align=center;verticalAlign=middle;whiteSpace=wrap;rounded=0;" vertex="1" parent="1">
          <mxGeometry x="443" y="610" width="50" height="30" as="geometry" />
        </mxCell>
        <mxCell id="xHcOPgm7-dVLdEI-tk_2-36" value="ingress load balancer" style="swimlane;whiteSpace=wrap;html=1;" vertex="1" parent="1">
          <mxGeometry x="250" y="521" width="180" height="159" as="geometry" />
        </mxCell>
        <mxCell id="xHcOPgm7-dVLdEI-tk_2-37" value="expose&lt;br&gt;services outside" style="rounded=0;whiteSpace=wrap;html=1;" vertex="1" parent="xHcOPgm7-dVLdEI-tk_2-36">
          <mxGeometry x="30" y="57" width="120" height="60" as="geometry" />
        </mxCell>
        <mxCell id="xHcOPgm7-dVLdEI-tk_2-41" value="" style="endArrow=classic;html=1;rounded=0;" edge="1" parent="1">
          <mxGeometry width="50" height="50" relative="1" as="geometry">
            <mxPoint x="150" y="160" as="sourcePoint" />
            <mxPoint x="200" y="190" as="targetPoint" />
          </mxGeometry>
        </mxCell>
        <mxCell id="xHcOPgm7-dVLdEI-tk_2-42" value="" style="endArrow=classic;html=1;rounded=0;" edge="1" parent="1">
          <mxGeometry width="50" height="50" relative="1" as="geometry">
            <mxPoint x="150" y="250" as="sourcePoint" />
            <mxPoint x="210" y="220" as="targetPoint" />
          </mxGeometry>
        </mxCell>
        <mxCell id="xHcOPgm7-dVLdEI-tk_2-87" style="edgeStyle=orthogonalEdgeStyle;rounded=0;orthogonalLoop=1;jettySize=auto;html=1;" edge="1" parent="1" source="xHcOPgm7-dVLdEI-tk_2-86">
          <mxGeometry relative="1" as="geometry">
            <mxPoint x="300" y="200" as="targetPoint" />
          </mxGeometry>
        </mxCell>
        <mxCell id="xHcOPgm7-dVLdEI-tk_2-90" style="edgeStyle=orthogonalEdgeStyle;rounded=0;orthogonalLoop=1;jettySize=auto;html=1;entryX=1;entryY=0.5;entryDx=0;entryDy=0;" edge="1" parent="1" source="xHcOPgm7-dVLdEI-tk_2-86" target="xHcOPgm7-dVLdEI-tk_2-89">
          <mxGeometry relative="1" as="geometry" />
        </mxCell>
        <mxCell id="xHcOPgm7-dVLdEI-tk_2-86" value="docker secret" style="rounded=0;whiteSpace=wrap;html=1;" vertex="1" parent="1">
          <mxGeometry x="430" y="170" width="120" height="60" as="geometry" />
        </mxCell>
        <mxCell id="xHcOPgm7-dVLdEI-tk_2-88" value="TLS" style="text;html=1;strokeColor=none;fillColor=none;align=center;verticalAlign=middle;whiteSpace=wrap;rounded=0;" vertex="1" parent="1">
          <mxGeometry x="359.5" y="208" width="54.5" height="30" as="geometry" />
        </mxCell>
        <mxCell id="xHcOPgm7-dVLdEI-tk_2-94" style="edgeStyle=orthogonalEdgeStyle;rounded=0;orthogonalLoop=1;jettySize=auto;html=1;" edge="1" parent="1" source="xHcOPgm7-dVLdEI-tk_2-93">
          <mxGeometry relative="1" as="geometry">
            <mxPoint x="830" y="160" as="targetPoint" />
          </mxGeometry>
        </mxCell>
        <mxCell id="xHcOPgm7-dVLdEI-tk_2-93" value="manager&lt;br&gt;node" style="ellipse;whiteSpace=wrap;html=1;aspect=fixed;" vertex="1" parent="1">
          <mxGeometry x="590" y="120" width="80" height="80" as="geometry" />
        </mxCell>
        <mxCell id="xHcOPgm7-dVLdEI-tk_2-95" value="grant encrypted secret access" style="text;html=1;strokeColor=none;fillColor=none;align=center;verticalAlign=middle;whiteSpace=wrap;rounded=0;" vertex="1" parent="1">
          <mxGeometry x="690" y="170" width="125" height="30" as="geometry" />
        </mxCell>
        <mxCell id="xHcOPgm7-dVLdEI-tk_2-96" value="service" style="swimlane;whiteSpace=wrap;html=1;" vertex="1" parent="1">
          <mxGeometry x="840" y="100" width="197" height="200" as="geometry" />
        </mxCell>
        <mxCell id="xHcOPgm7-dVLdEI-tk_2-98" value="container" style="rounded=0;whiteSpace=wrap;html=1;" vertex="1" parent="xHcOPgm7-dVLdEI-tk_2-96">
          <mxGeometry x="58.5" y="41" width="80" height="40" as="geometry" />
        </mxCell>
        <mxCell id="xHcOPgm7-dVLdEI-tk_2-99" value="mounted descripted secret&lt;br&gt;: run/secrets/&amp;lt;secret_name&amp;gt;" style="rounded=0;whiteSpace=wrap;html=1;" vertex="1" parent="xHcOPgm7-dVLdEI-tk_2-96">
          <mxGeometry x="18.5" y="101" width="160" height="50" as="geometry" />
        </mxCell>
        <mxCell id="xHcOPgm7-dVLdEI-tk_2-100" value="in-memory file system" style="text;html=1;strokeColor=none;fillColor=none;align=center;verticalAlign=middle;whiteSpace=wrap;rounded=0;" vertex="1" parent="xHcOPgm7-dVLdEI-tk_2-96">
          <mxGeometry x="36" y="160" width="125" height="30" as="geometry" />
        </mxCell>
      </root>
    </mxGraphModel>
  </diagram>
</mxfile>
